<svg width="145" height="45" viewBox="0 0 145 45" fill="none" xmlns="http://www.w3.org/2000/svg">
<path d="M56 12.9396C56.0029 6.91092 51.818 1.67998 45.9118 0.329781C40.0056 -1.02042 33.9451 1.86835 31.3022 7.29352C28.6593 12.7187 30.1352 19.2409 34.86 23.0161C39.5849 26.7913 46.3051 26.8179 51.06 23.0802C51.7618 24.8424 53.4739 26 55.3793 26H56V12.9791V12.9396ZM43.0064 20.6338C38.7348 20.6338 35.2721 17.189 35.2721 12.9396C35.2721 8.69024 38.7348 5.24544 43.0064 5.24544C47.2779 5.24544 50.7407 8.69024 50.7407 12.9396C50.7374 17.1867 47.2756 20.6279 43.0064 20.6279V20.6338Z" fill="white"/>
<path d="M24.0469 4.89146C25.8202 4.1601 26.9703 2.48164 26.9712 0.624022V0H13.3877C7.09976 0.0506546 1.6809 4.27548 0.320835 10.1876C-1.03923 16.0998 2.01976 22.1332 7.69719 24.7365C13.3746 27.3398 20.1667 25.8234 24.0753 21.0798C27.984 16.3363 27.9739 9.62214 24.051 4.88949L24.0469 4.89146ZM13.5026 20.7211C9.07095 20.7211 5.47841 17.2615 5.47841 12.9939C5.47841 8.72625 9.07095 5.26666 13.5026 5.26666C17.9342 5.26666 21.5267 8.72625 21.5267 12.9939C21.5267 15.0433 20.6813 17.0087 19.1765 18.4578C17.6717 19.907 15.6307 20.7211 13.5026 20.7211Z" fill="white"/>
<path d="M15.5563 30H4.00001V31.0043C3.99741 32.0921 4.43161 33.1362 5.20682 33.9063C5.98203 34.6764 7.03455 35.1092 8.13217 35.1092H15.5563C16.4335 35.0844 17.255 35.534 17.701 36.283C18.147 37.032 18.147 37.9621 17.701 38.7111C17.255 39.4602 16.4335 39.9098 15.5563 39.8849H14.1553C12.7871 39.8849 11.4752 40.4241 10.5085 41.3836C9.54182 42.3431 8.9998 43.6441 9.00189 45H15.5563C19.6866 44.934 23 41.5968 23 37.5029C23 33.409 19.6866 30.0719 15.5563 30.0058V30Z" fill="white"/>
<path d="M130.293 0L122.794 18.027L114.283 0.514072L114.045 0H108L119.87 24.8339L119.724 25.1854L114.106 38.5777C116.992 39.7522 119.894 38.3928 121.09 35.5421L122.878 31.2913L125.609 24.775L136 0H130.293Z" fill="white"/>
<path d="M142.5 5C143.881 5 145 3.88071 145 2.5C145 1.11929 143.881 0 142.5 0C141.119 0 140 1.11929 140 2.5C140 3.88071 141.119 5 142.5 5Z" fill="white"/>
<path d="M97 10.3996C96.0309 10.4257 95.1237 9.93605 94.6312 9.12105C94.1387 8.30605 94.1387 7.29434 94.6312 6.47935C95.1237 5.66435 96.0309 5.17469 97 5.20079H99.5247C104.637 5.20079 105 0 105 0H97C92.6353 0.0678486 89.1334 3.54017 89.1334 7.8002C89.1334 12.0602 92.6353 15.5325 97 15.6004C97.9691 15.5743 98.8763 16.064 99.3688 16.879C99.8613 17.6939 99.8613 18.7057 99.3688 19.5207C98.8763 20.3357 97.9691 20.8253 97 20.7992H94.4753C89.363 20.7992 89 26 89 26H96.9919C101.357 25.9322 104.858 22.4598 104.858 18.1998C104.858 13.9398 101.357 10.4675 96.9919 10.3996H97Z" fill="white"/>
<path d="M72.5001 1.51012e-07C68.9198 -0.000526358 65.486 1.37574 62.9542 3.82598C60.4224 6.27622 59 9.59968 59 13.0651C59 13.077 59 13.0909 59 13.1048V38H59.6893C62.3302 38 64.471 35.9278 64.471 33.3716V23.5668C69.1833 26.9425 75.6079 26.9882 80.3708 23.6798C85.1338 20.3714 87.1459 14.4655 85.3504 9.06377C83.555 3.66202 78.3626 -0.000383364 72.5001 1.51012e-07ZM72.5001 20.8347C68.0669 20.8347 64.4731 17.3561 64.4731 13.0651C64.4731 8.77409 68.0669 5.29554 72.5001 5.29554C76.9333 5.29554 80.5271 8.77409 80.5271 13.0651C80.5271 15.1257 79.6814 17.1019 78.1761 18.559C76.6707 20.0161 74.629 20.8347 72.5001 20.8347Z" fill="white"/>
</svg>
