<svg xmlns="http://www.w3.org/2000/svg" xmlns:xlink="http://www.w3.org/1999/xlink" width="145px" height="45px" viewBox="0 0 145 45"><!-- Generator: Sketch 59 (86127) - https://sketch.com --><title>gapsy black</title><desc>Created with Sketch.</desc><g id="Case_solo" stroke="none" stroke-width="1" fill="none" fill-rule="evenodd"><g id="Case_Crypto" transform="translate(-80.000000, -70.000000)" fill="#FFFFFF" fill-rule="nonzero"><g id="Group-6" transform="translate(80.000000, 60.000000)"><g id="gapsy-black" transform="translate(0.000000, 10.000000)"><path d="M56,12.939622 C56.0029056,6.91091939 51.8180346,1.67998307 45.911832,0.329781249 C40.0056294,-1.02042057 33.9451227,1.86834627 31.3022059,7.29352305 C28.6592891,12.7186998 30.1351781,19.2408842 34.860025,23.0160823 C39.5848719,26.7912804 46.3050852,26.8178606 51.0599584,23.0801572 C51.7617661,24.8423808 53.4738993,26 55.3792708,26 L56,26 L56,12.9790793 L56,12.9790793 L56,12.939622 Z M43.0063643,20.6338024 C38.7348249,20.6338024 35.2720582,17.1890005 35.2720582,12.939622 C35.2720582,8.69024352 38.7348249,5.24544163 43.0063643,5.24544163 C47.2779036,5.24544163 50.7406703,8.69024352 50.7406703,12.939622 C50.7373863,17.186689 47.2755812,20.6278851 43.0063643,20.6278838 L43.0063643,20.6338024 Z" id="Shape"></path><path d="M24.0469427,4.89146158 C25.8201516,4.16010345 26.9702977,2.48164009 26.9711529,0.624021744 L26.9711529,0 L13.387725,0 C7.09976271,0.0506546284 1.68090101,4.27548016 0.32083514,10.1876248 C-1.03923073,16.0997695 2.01975533,22.1332165 7.69718762,24.7365082 C13.3746199,27.3398 20.1666525,25.8233731 24.075303,21.0798394 C27.9839535,16.3363056 27.9738932,9.62213858 24.051044,4.88948683 L24.0469427,4.89146158 Z M13.5025608,20.7210765 C9.07094649,20.7210765 5.47841328,17.2614885 5.47841328,12.9938705 C5.47841328,8.72625248 9.07094649,5.26666453 13.5025608,5.26666453 C17.9341751,5.26666453 21.5267083,8.72625248 21.5267083,12.9938705 C21.5267083,15.0432529 20.6813095,17.008698 19.1764899,18.4578302 C17.6716703,19.9069624 15.630697,20.7210765 13.5025608,20.7210765 Z" id="Shape"></path><path d="M15.5562463,30 L4,30 L4,31.0042902 C3.99739835,32.0920835 4.4315942,33.1362111 5.20680531,33.9063134 C5.98201641,34.6764157 7.03453761,35.1092075 8.13215758,35.1092044 L15.5562463,35.1092044 C16.4334723,35.0843575 17.2550083,35.5339706 17.7010189,36.283003 C18.1470294,37.0320355 18.1470294,37.9621143 17.7010189,38.7111467 C17.2550083,39.4601792 16.4334723,39.9097923 15.5562463,39.8849454 L14.1552521,39.8849454 C12.787127,39.8849438 11.4751514,40.4240986 10.5084793,41.3835823 C9.5418072,42.343066 8.99978636,43.644121 9.0018759,45 L15.5562463,45 C19.6865941,44.9339799 23,41.5968393 23,37.5029251 C23,33.4090109 19.6865941,30.0718704 15.5562463,30.0058502 L15.5562463,30 Z" id="Path"></path><path d="M130.292994,0 L122.794441,18.0270486 L114.282571,0.514071608 L114.045455,0 L108,0 L119.870006,24.8339257 L119.724088,25.185445 L114.106254,38.5777215 C116.992183,39.7521618 119.894325,38.3928183 121.090041,35.5420576 L122.877533,31.2913153 L125.609438,24.7750005 L136,0 L130.292994,0 Z" id="Path"></path><circle id="Oval" cx="142.5" cy="2.5" r="2.5"></circle><path d="M97,10.3996042 C96.0308547,10.4257027 95.12366,9.93604596 94.6312024,9.12104981 C94.1387448,8.30605366 94.1387448,7.29434214 94.6312024,6.47934599 C95.12366,5.66434984 96.0308547,5.17469305 97,5.2007916 L99.5247148,5.2007916 C104.637009,5.2007916 105,0 105,0 L97,0 C92.6352766,0.0678485929 89.133401,3.54016525 89.133401,7.8001979 C89.133401,12.0602305 92.6352766,15.5325472 97,15.6003958 C97.9691453,15.5742973 98.87634,16.063954 99.3687976,16.8789502 C99.8612552,17.6939463 99.8612552,18.7056579 99.3687976,19.520654 C98.87634,20.3356502 97.9691453,20.8253069 97,20.7992084 L94.4752852,20.7992084 C89.3629911,20.7992084 89,26 89,26 L96.9918885,26 C101.356612,25.9321514 104.858487,22.4598347 104.858487,18.1998021 C104.858487,13.9397695 101.356612,10.4674528 96.9918885,10.3996042 L97,10.3996042 Z" id="Path"></path><path d="M72.5000992,0 C68.919839,-0.000526509328 65.4860306,1.37573928 62.9542119,3.82597903 C60.4223932,6.27621878 59,9.59968056 59,13.0651062 C59,13.0770196 59,13.0909187 59,13.1048177 L59,13.1048177 L59,38 L59.689262,38 C62.3301525,38 64.4710173,35.9278022 64.4710173,33.3716167 L64.4710173,23.5668304 C69.1832546,26.9425453 75.6079062,26.9881994 80.3708415,23.6798161 C85.1337767,20.3714328 87.1458877,14.4655174 85.350444,9.06376802 C83.5550003,3.66201866 78.3625537,-0.000383515244 72.5000992,0 L72.5000992,0 Z M72.5000992,20.8346745 C68.0668927,20.8346745 64.4730686,17.3561203 64.4730686,13.0651062 C64.4730686,8.77409205 68.0668927,5.2955378 72.5000992,5.2955378 C76.9333058,5.2955378 80.5271298,8.77409205 80.5271298,13.0651062 C80.5271298,15.1257238 79.6814272,17.1019439 78.176067,18.5590207 C76.6707067,20.0160974 74.6290001,20.8346745 72.5000992,20.8346745 Z" id="Shape"></path></g></g></g></g></svg> 